<?xml version="1.0" encoding="utf-8"?>
<svg xmlns="http://www.w3.org/2000/svg">
  <defs>
   <symbol id="location" viewBox="0 0 18 20" fill="none">
<g clip-path="url(#clip0_45_248)">
    <path d="M16.5 8.33333C16.5 14.1667 9 19.1667 9 19.1667C9 19.1667 1.5 14.1667 1.5 8.33333C1.5 6.34421 2.29018 4.43655 3.6967 3.03003C5.10322 1.6235 7.01088 0.833328 9 0.833328C10.9891 0.833328 12.8968 1.6235 14.3033 3.03003C15.7098 4.43655 16.5 6.34421 16.5 8.33333Z"  stroke-width="1.5" stroke-linecap="round" stroke-linejoin="round" />
    <path d="M9 10.8333C10.3807 10.8333 11.5 9.71404 11.5 8.33333C11.5 6.95262 10.3807 5.83333 9 5.83333C7.61929 5.83333 6.5 6.95262 6.5 8.33333C6.5 9.71404 7.61929 10.8333 9 10.8333Z"  stroke-width="1.5" stroke-linecap="round" stroke-linejoin="round" />
  </g>
  <defs>
    <clipPath id="clip0_45_248">
      <rect width="18" height="20" fill="white" />
    </clipPath>
  </defs>
  </symbol>
    <symbol id="ac" viewBox="0 0 32 32" >
  <path d="M15.5537 5.3C14.2027 5.30031 12.8935 5.7805 11.8487 6.65893C10.8038 7.53736 10.0879 8.75981 9.8225 10.1185L9.7181 10.6575C9.69035 10.7781 9.68654 10.9032 9.70692 11.0253C9.7273 11.1474 9.77143 11.2641 9.8367 11.3683C9.90197 11.4726 9.98703 11.5623 10.0868 11.6321C10.1866 11.702 10.2991 11.7505 10.4175 11.7748C10.536 11.7991 10.658 11.7986 10.7763 11.7736C10.8946 11.7485 11.0067 11.6992 11.1061 11.6287C11.2054 11.5582 11.2899 11.468 11.3545 11.3633C11.4191 11.2586 11.4625 11.1416 11.4821 11.0194L11.5883 10.4822C11.7878 9.47479 12.3447 8.57922 13.1512 7.96889C13.9576 7.35856 14.9562 7.07691 15.9536 7.17849C16.9509 7.28006 17.876 7.75764 18.5497 8.51872C19.2233 9.2798 19.5976 10.2702 19.6001 11.2982C19.6001 12.4 19.1735 13.4567 18.414 14.236C17.6545 15.0153 16.6244 15.4534 15.5501 15.4538H2.5001C2.2614 15.4538 2.03248 15.5511 1.8637 15.7242C1.69492 15.8973 1.6001 16.1321 1.6001 16.3769C1.6001 16.6217 1.69492 16.8565 1.8637 17.0296C2.03248 17.2027 2.2614 17.3 2.5001 17.3H15.5501C17.0765 17.2616 18.5278 16.6129 19.5944 15.4923C20.6609 14.3716 21.2581 12.8678 21.2586 11.3018C21.259 9.73579 20.6627 8.23161 19.5969 7.11028C18.531 5.98896 17.0801 5.33932 15.5537 5.3ZM25.9001 13.6077C24.7066 13.6077 23.562 14.094 22.7181 14.9595C21.8742 15.8251 21.4001 16.999 21.4001 18.2231C21.4001 18.4679 21.4949 18.7027 21.6637 18.8758C21.8325 19.0489 22.0614 19.1462 22.3001 19.1462C22.5388 19.1462 22.7677 19.0489 22.9365 18.8758C23.1053 18.7027 23.2001 18.4679 23.2001 18.2231C23.2001 17.6754 23.3584 17.14 23.6551 16.6846C23.9518 16.2292 24.3735 15.8742 24.8669 15.6646C25.3602 15.455 25.9031 15.4002 26.4268 15.5071C26.9506 15.6139 27.4317 15.8777 27.8093 16.2649C28.1869 16.6522 28.444 17.1456 28.5482 17.6828C28.6524 18.22 28.5989 18.7768 28.3946 19.2828C28.1902 19.7888 27.8441 20.2213 27.4001 20.5256C26.9561 20.8299 26.4341 20.9923 25.9001 20.9923H2.5001C2.2614 20.9923 2.03248 21.0896 1.8637 21.2627C1.69492 21.4358 1.6001 21.6706 1.6001 21.9154C1.6001 22.1602 1.69492 22.395 1.8637 22.5681C2.03248 22.7412 2.2614 22.8385 2.5001 22.8385H20.0501C20.6468 22.8397 21.2187 23.084 21.6398 23.5176C22.0609 23.9513 22.2968 24.5387 22.2956 25.1508C22.2944 25.7628 22.0562 26.3493 21.6334 26.7812C21.2106 27.2131 20.6378 27.4551 20.0411 27.4538C19.5036 27.4542 18.9832 27.2594 18.5724 26.9039C18.1615 26.5484 17.8867 26.0552 17.7965 25.5117L17.7875 25.4563C17.7713 25.3339 17.7313 25.216 17.6699 25.1097C17.6085 25.0034 17.5269 24.9108 17.43 24.8375C17.333 24.7641 17.2227 24.7115 17.1056 24.6826C16.9884 24.6538 16.8668 24.6494 16.748 24.6697C16.6291 24.69 16.5155 24.7345 16.4137 24.8007C16.312 24.8668 16.2242 24.9533 16.1557 25.0549C16.0871 25.1565 16.0391 25.2711 16.0145 25.3921C15.99 25.5131 15.9894 25.6379 16.0127 25.7591L16.0217 25.8145C16.1817 26.7891 16.6733 27.674 17.4091 28.3121C18.145 28.9502 19.0775 29.3002 20.0411 29.3C21.1162 29.3005 22.1475 28.8633 22.9086 28.0845C23.6696 27.3056 24.0982 26.2488 24.1001 25.1462C24.1001 24.2914 23.8481 23.4975 23.4179 22.8385H25.9001C27.0936 22.8385 28.2382 22.3522 29.0821 21.4866C29.926 20.6211 30.4001 19.4472 30.4001 18.2231C30.4001 16.999 29.926 15.8251 29.0821 14.9595C28.2382 14.094 27.0936 13.6077 25.9001 13.6077Z"  />
    </symbol>
    <symbol id="automatic" viewBox="0 0 32 32" fill="none">
    <path d="M23.1667 15.1667H25.1667C25.6971 15.1667 26.2058 14.956 26.5809 14.5809C26.956 14.2058 27.1667 13.6971 27.1667 13.1667C27.1667 12.6362 26.956 12.1275 26.5809 11.7525C26.2058 11.3774 25.6971 11.1667 25.1667 11.1667H23.1667V17.8333M23.1667 23.1667V28.5H24.5C25.2072 28.5 25.8855 28.219 26.3856 27.719C26.8857 27.2189 27.1667 26.5406 27.1667 25.8333C27.1667 25.1261 26.8857 24.4478 26.3856 23.9477C25.8855 23.4476 25.2072 23.1667 24.5 23.1667H23.1667ZM4.5 7.16667C4.5 7.87391 4.78095 8.55219 5.28105 9.05229C5.78115 9.55238 6.45942 9.83333 7.16667 9.83333C7.87391 9.83333 8.55219 9.55238 9.05229 9.05229C9.55238 8.55219 9.83333 7.87391 9.83333 7.16667C9.83333 6.45942 9.55238 5.78115 9.05229 5.28105C8.55219 4.78095 7.87391 4.5 7.16667 4.5C6.45942 4.5 5.78115 4.78095 5.28105 5.28105C4.78095 5.78115 4.5 6.45942 4.5 7.16667Z"  stroke-width="1.8" stroke-linecap="round" stroke-linejoin="round" />
  <path d="M7.16675 9.83333V13.8333C7.16675 14.187 7.30722 14.5261 7.55727 14.7761C7.80732 15.0262 8.14646 15.1667 8.50008 15.1667H12.5001M12.5001 15.1667V24.5C12.5001 24.8536 12.6406 25.1928 12.8906 25.4428C13.1407 25.6929 13.4798 25.8333 13.8334 25.8333H17.8334M12.5001 15.1667H17.8334"  stroke-width="1.8" stroke-linecap="round" stroke-linejoin="round" />
    </symbol>
    <symbol id="kitchen" viewBox="0 0 32 32" fill="none">
 <path d="M25.8334 20.5V4.5C19.4121 10.6253 19.1361 15.592 19.1667 20.5H25.8334ZM25.8334 20.5V28.5H24.5001V24.5M11.1667 5.83333V28.5M7.16675 5.83333V9.83333C7.16675 10.8942 7.58818 11.9116 8.33832 12.6618C9.08847 13.4119 10.1059 13.8333 11.1667 13.8333C12.2276 13.8333 13.245 13.4119 13.9952 12.6618C14.7453 11.9116 15.1667 10.8942 15.1667 9.83333V5.83333" stroke-width="1.8" stroke-linecap="round" stroke-linejoin="round" />
</symbol>
    <symbol id="tv" viewBox="0 0 32 32" fill="none">
 <path d="M24 26.5H8C5.784 26.5 4 24.716 4 22.5V12.5C4 10.284 5.784 8.5 8 8.5H24C26.216 8.5 28 10.284 28 12.5V22.5C28 24.716 26.216 26.5 24 26.5Z"  stroke-width="1.8" stroke-linecap="round" stroke-linejoin="round" />
  <path d="M12 30.5H20"  stroke-width="1.8" stroke-linecap="round" stroke-linejoin="round" />
  <path d="M16 8.5L22 2.5"  stroke-width="1.8" stroke-linecap="round" stroke-linejoin="round" />
  <path d="M16 8.5L10 2.5"  stroke-width="1.8" stroke-linecap="round" stroke-linejoin="round" />
    </symbol>
    <symbol id="shower" viewBox="0 0 32 32" fill="none">
 <path d="M5.33325 5.83334L8.66659 9.16667M17.9999 9.16667C16.758 7.94958 15.0859 7.27178 13.3471 7.28056C11.6082 7.28934 9.94306 7.984 8.71349 9.21357C7.48391 10.4431 6.78926 12.1083 6.78048 13.8471C6.77169 15.586 7.44949 17.2581 8.66659 18.5M19.9999 7.16667L6.66659 20.5M18.6666 23.1667V23.18M13.3333 21.8333V21.8467M17.3333 17.8333V17.8467M21.3333 13.8333V13.8467M14.6666 27.1667V27.18M22.6666 19.1667V19.18M26.6666 15.1667V15.18"  stroke-width="2" stroke-linecap="round" stroke-linejoin="round" />
    </symbol>
    <symbol id="van" viewBox="0 0 40 28" fill="none">
<path d="M2.28197 1.57469H13.14C13.2318 1.57469 13.318 1.53975 13.3831 1.47627L14.4262 0.45863C14.7294 0.162883 15.1324 0 15.5612 0H32.0257C32.7924 0 33.5042 0.371529 33.9299 0.994024L35.9032 3.88162C36.1831 4.29153 36.2088 4.81561 35.9707 5.25012C35.7327 5.68464 35.2706 5.95431 34.7657 5.95431H26.2799V6.79086H30.626C31.7781 6.79086 32.8146 7.45863 33.2666 8.49251L35.8113 14.311L38.0404 15.181C39.2308 15.6456 40 16.7537 40 18.0046V23.393C40 24.1966 39.3296 24.8506 38.5059 24.8506H35.9122C35.6106 26.6344 34.0187 28 32.1059 28C30.1932 28 28.6013 26.6344 28.2996 24.8506H14.1216C13.8199 26.6344 12.228 28 10.3153 28C8.40252 28 6.81059 26.6344 6.50895 24.8506H1.32812C0.595715 24.8506 0 24.2695 0 23.5549V3.80091C0 2.57315 1.02345 1.57469 2.28197 1.57469ZM32.1059 26.7698C33.5385 26.7698 34.7037 25.633 34.7037 24.2355C34.7037 22.838 33.5385 21.7012 32.1059 21.7012C30.6734 21.7012 29.5082 22.838 29.5082 24.2355C29.5082 25.633 30.6734 26.7698 32.1059 26.7698ZM26.2799 23.6204H28.2986C28.3037 23.5894 28.3102 23.5594 28.3163 23.5289C28.3203 23.5082 28.3238 23.4875 28.3284 23.4669C28.3385 23.4186 28.3501 23.3709 28.3622 23.3232C28.3647 23.3133 28.3667 23.3035 28.3697 23.2936C28.3849 23.2361 28.4015 23.1795 28.4192 23.1234C28.4242 23.1071 28.4303 23.0909 28.4358 23.0742C28.4489 23.0348 28.4625 22.9954 28.4767 22.9566C28.4847 22.9359 28.4928 22.9152 28.5014 22.8946C28.5145 22.8606 28.5276 22.8266 28.5422 22.7932C28.5513 22.771 28.5614 22.7494 28.5715 22.7277C28.5856 22.6957 28.5997 22.6647 28.6149 22.6333C28.626 22.6111 28.6366 22.5895 28.6482 22.5673C28.6633 22.5373 28.6794 22.5068 28.6956 22.4773C28.7072 22.4556 28.7193 22.434 28.7314 22.4123C28.748 22.3828 28.7657 22.3533 28.7834 22.3242C28.796 22.3035 28.8086 22.2829 28.8212 22.2622C28.8404 22.2327 28.8595 22.2037 28.8792 22.1741C28.8923 22.1549 28.9049 22.1357 28.918 22.117C28.9397 22.086 28.9624 22.0555 28.9856 22.025C28.9972 22.0088 29.0088 21.9925 29.0209 21.9768C29.0522 21.9364 29.084 21.8976 29.1163 21.8587C29.1208 21.8528 29.1253 21.8469 29.1304 21.841C29.1677 21.7967 29.2066 21.7534 29.2459 21.7111C29.258 21.6978 29.2706 21.6855 29.2832 21.6727C29.311 21.6437 29.3387 21.6146 29.3675 21.5861C29.3836 21.5703 29.4003 21.5551 29.4164 21.5398C29.4421 21.5152 29.4683 21.4906 29.4951 21.4665C29.5127 21.4508 29.5309 21.435 29.5491 21.4193C29.5753 21.3966 29.6015 21.3745 29.6282 21.3523L29.6858 21.3066C29.7125 21.2854 29.7397 21.2647 29.767 21.2441C29.7866 21.2293 29.8068 21.2146 29.827 21.2003C29.8547 21.1801 29.883 21.1609 29.9117 21.1412C29.9319 21.1279 29.9521 21.1142 29.9723 21.1009C30.002 21.0812 30.0328 21.0625 30.0631 21.0438C30.0827 21.032 30.1024 21.0197 30.1226 21.0079C30.1559 20.9882 30.1902 20.9695 30.2245 20.9508C30.2421 20.941 30.2593 20.9311 30.2764 20.9218C30.3253 20.8962 30.3743 20.8716 30.4237 20.8479C30.4277 20.8465 30.4313 20.8445 30.4353 20.8425C30.4888 20.8174 30.5433 20.7933 30.5977 20.7707C30.6154 20.7633 30.6335 20.7569 30.6512 20.7495C30.6885 20.7348 30.7264 20.72 30.7647 20.7057C30.7864 20.6979 30.8086 20.691 30.8303 20.6831C30.8651 20.6713 30.8999 20.6595 30.9352 20.6486C30.9589 20.6413 30.9826 20.6344 31.0068 20.6275C31.0411 20.6176 31.0754 20.6078 31.1097 20.5989C31.1344 20.5925 31.1591 20.5862 31.1844 20.5802C31.2187 20.5719 31.253 20.5645 31.2878 20.5571C31.313 20.5517 31.3382 20.5463 31.3639 20.5414C31.3992 20.535 31.4346 20.5286 31.4704 20.5232C31.4956 20.5187 31.5203 20.5148 31.546 20.5114C31.5828 20.5059 31.6202 20.5015 31.658 20.4971C31.6817 20.4946 31.7059 20.4912 31.7301 20.4892C31.7715 20.4853 31.8134 20.4823 31.8552 20.4799C31.8759 20.4784 31.8961 20.4764 31.9168 20.4759C31.9798 20.4725 32.0424 20.471 32.1059 20.471C32.1695 20.471 32.232 20.4725 32.2951 20.4759C32.3158 20.4764 32.3359 20.4784 32.3566 20.4799C32.3985 20.4823 32.4404 20.4853 32.4817 20.4892C32.5059 20.4912 32.5301 20.4946 32.5538 20.4971C32.5917 20.5015 32.629 20.5059 32.6658 20.5114C32.6916 20.5148 32.7163 20.5187 32.7415 20.5232C32.7773 20.5286 32.8126 20.535 32.8479 20.5414C32.8736 20.5463 32.8989 20.5517 32.9241 20.5571C32.9589 20.5645 32.9932 20.5719 33.0275 20.5802C33.0527 20.5862 33.0774 20.5925 33.1021 20.5989C33.1364 20.6078 33.1707 20.6176 33.205 20.6275C33.2293 20.6344 33.253 20.6413 33.2767 20.6486C33.312 20.6595 33.3468 20.6713 33.3816 20.6831C33.4033 20.691 33.4255 20.6979 33.4472 20.7057C33.4855 20.72 33.5233 20.7348 33.5607 20.7495C33.5783 20.7569 33.5965 20.7633 33.6141 20.7707C33.6686 20.7933 33.7231 20.8174 33.7765 20.8425C33.7806 20.8445 33.7841 20.8465 33.7881 20.8479C33.8376 20.8716 33.8865 20.8962 33.9354 20.9218C33.9526 20.9311 33.9697 20.941 33.9874 20.9508C34.0217 20.9695 34.056 20.9882 34.0893 21.0079C34.1095 21.0197 34.1291 21.032 34.1488 21.0438C34.1791 21.0625 34.2098 21.0812 34.2396 21.1009C34.2598 21.1142 34.2799 21.1279 34.3001 21.1412C34.3289 21.1609 34.3571 21.1801 34.3849 21.2003C34.405 21.2146 34.4252 21.2293 34.4449 21.2441C34.4721 21.2647 34.4994 21.2854 34.5261 21.3066L34.5836 21.3523C34.6103 21.3745 34.6366 21.3966 34.6628 21.4193C34.681 21.435 34.6991 21.4508 34.7168 21.4665C34.7435 21.4906 34.7697 21.5152 34.7955 21.5398C34.8116 21.5551 34.8282 21.5703 34.8444 21.5861C34.8731 21.6146 34.9009 21.6437 34.9286 21.6727C34.9412 21.6855 34.9538 21.6978 34.966 21.7111C35.0053 21.7534 35.0441 21.7967 35.0815 21.841C35.0865 21.8469 35.091 21.8528 35.0956 21.8587C35.1279 21.8976 35.1596 21.9364 35.1909 21.9768C35.203 21.9925 35.2146 22.0088 35.2262 22.025C35.2494 22.0555 35.2721 22.086 35.2938 22.117C35.3069 22.1357 35.3195 22.1549 35.3327 22.1741C35.3523 22.2037 35.3715 22.2327 35.3907 22.2622C35.4033 22.2829 35.4159 22.3035 35.4285 22.3242C35.4462 22.3533 35.4638 22.3828 35.4805 22.4123C35.4926 22.434 35.5047 22.4556 35.5163 22.4773C35.5324 22.5068 35.5486 22.5373 35.5637 22.5673C35.5753 22.5895 35.5859 22.6111 35.597 22.6333C35.6121 22.6647 35.6262 22.6957 35.6404 22.7277C35.6504 22.7494 35.6605 22.771 35.6696 22.7932C35.6842 22.8266 35.6974 22.8606 35.7105 22.8946C35.719 22.9152 35.7271 22.9359 35.7352 22.9566C35.7493 22.9954 35.7629 23.0348 35.776 23.0742C35.7816 23.0909 35.7876 23.1071 35.7927 23.1234C35.8103 23.1795 35.827 23.2361 35.8421 23.2936C35.8451 23.3035 35.8472 23.3133 35.8497 23.3232C35.8618 23.3709 35.8734 23.4186 35.8835 23.4669C35.888 23.4875 35.8916 23.5082 35.8956 23.5289C35.9016 23.5594 35.9082 23.5894 35.9132 23.6204H38.5059C38.6346 23.6204 38.739 23.5185 38.739 23.393V20.8155H37.7554V19.5852H38.739V18.0046C38.739 17.2596 38.281 16.5997 37.5723 16.3232L35.2126 15.4025H26.2799V23.6204ZM26.2799 14.1722H34.3798L32.1069 8.97526C31.8532 8.39557 31.2721 8.02109 30.626 8.02109H26.2799V14.1722ZM10.3153 26.7698C11.7478 26.7698 12.913 25.633 12.913 24.2355C12.913 22.838 11.7478 21.7012 10.3153 21.7012C10.2704 21.7012 10.226 21.7022 10.1816 21.7047C8.98815 21.7637 8.00454 22.6131 7.77049 23.7252C7.76192 23.7665 7.75385 23.8084 7.74729 23.8502C7.73418 23.9338 7.7256 24.019 7.72106 24.1051C7.71854 24.1484 7.71753 24.1917 7.71753 24.2355C7.71753 25.633 8.88272 26.7698 10.3153 26.7698ZM1.26103 19.5852H2.24464V20.8155H1.26103V23.5549C1.26103 23.5909 1.2913 23.6204 1.32812 23.6204H6.50795C6.51299 23.5899 6.51955 23.5599 6.5256 23.5298C6.52963 23.5087 6.53316 23.4875 6.5377 23.4664C6.54779 23.4191 6.55889 23.3724 6.571 23.3261C6.57402 23.3153 6.57604 23.304 6.57907 23.2931C6.5942 23.2361 6.61084 23.18 6.6285 23.1239C6.63404 23.1066 6.6401 23.0894 6.64565 23.0727C6.65876 23.0338 6.67188 22.9949 6.686 22.957C6.69407 22.9354 6.70265 22.9147 6.71072 22.8936C6.72383 22.8601 6.73745 22.8266 6.75107 22.7937C6.76066 22.771 6.77074 22.7489 6.78083 22.7268C6.79496 22.6957 6.80908 22.6647 6.82421 22.6337C6.8348 22.6111 6.84641 22.589 6.8575 22.5668C6.87263 22.5368 6.88827 22.5073 6.90442 22.4773C6.91652 22.4556 6.92862 22.434 6.94073 22.4123C6.95788 22.3828 6.97503 22.3537 6.99269 22.3247C7.00529 22.3036 7.01791 22.2829 7.03102 22.2622C7.04969 22.2327 7.06886 22.2037 7.08853 22.1751C7.10114 22.1554 7.11425 22.1357 7.12737 22.117C7.14906 22.086 7.17175 22.056 7.19395 22.026C7.20605 22.0093 7.21816 21.9925 7.23077 21.9763C7.26103 21.9374 7.29181 21.8991 7.32358 21.8612C7.32913 21.8543 7.33418 21.8474 7.33972 21.841C7.37756 21.7967 7.41589 21.7534 7.45523 21.7111C7.46784 21.6978 7.48045 21.685 7.49306 21.6717C7.52081 21.6427 7.54855 21.6141 7.5768 21.5861C7.59294 21.5703 7.60958 21.5551 7.62623 21.5393C7.65195 21.5147 7.67768 21.4906 7.70441 21.4665C7.72207 21.4508 7.74073 21.435 7.75889 21.4188C7.78461 21.3966 7.81084 21.3745 7.83758 21.3528C7.85675 21.3371 7.87592 21.3213 7.89559 21.3061C7.92182 21.2854 7.94905 21.2647 7.97629 21.2441C7.99596 21.2293 8.01614 21.2146 8.03632 21.2003C8.06406 21.1801 8.09231 21.1609 8.12055 21.1417C8.14124 21.1279 8.16141 21.1142 8.18159 21.1009C8.21135 21.0812 8.24161 21.0625 8.27188 21.0443C8.29206 21.032 8.31173 21.0197 8.3319 21.0079C8.36519 20.9882 8.39899 20.9695 8.43329 20.9508C8.45095 20.941 8.4681 20.9311 8.48625 20.9218C8.53417 20.8962 8.5826 20.8721 8.63203 20.8489C8.63607 20.847 8.6401 20.8445 8.64464 20.8425C8.69811 20.8174 8.75258 20.7933 8.80706 20.7707C8.82471 20.7633 8.84287 20.7569 8.86053 20.7495C8.89836 20.7348 8.93569 20.72 8.97402 20.7057C8.99571 20.6979 9.0179 20.691 9.0401 20.6831C9.0744 20.6713 9.10921 20.6595 9.14451 20.6486C9.16822 20.6413 9.19243 20.6344 9.21614 20.6275C9.25044 20.6176 9.28474 20.6078 9.31904 20.5989C9.34376 20.5925 9.36847 20.5862 9.39369 20.5802C9.42799 20.5719 9.4623 20.5645 9.4971 20.5571C9.52232 20.5517 9.54754 20.5463 9.57327 20.5414C9.60857 20.535 9.64388 20.5286 9.6797 20.5232C9.70492 20.5187 9.72964 20.5148 9.75536 20.5114C9.79218 20.5059 9.82951 20.5015 9.86734 20.4971C9.89105 20.4946 9.91526 20.4912 9.93947 20.4892C9.98083 20.4853 10.0227 20.4823 10.0646 20.4799C10.0852 20.4784 10.1054 20.4764 10.1261 20.4759C10.1892 20.4725 10.2517 20.471 10.3153 20.471C10.3788 20.471 10.4414 20.4725 10.5044 20.4759C10.5251 20.4764 10.5453 20.4784 10.566 20.4799C10.6078 20.4823 10.6497 20.4853 10.691 20.4892C10.7153 20.4912 10.7395 20.4946 10.7632 20.4971C10.801 20.5015 10.8383 20.5059 10.8752 20.5114C10.9009 20.5148 10.9256 20.5187 10.9508 20.5232C10.9866 20.5286 11.0219 20.535 11.0573 20.5414C11.083 20.5463 11.1082 20.5517 11.1334 20.5571C11.1682 20.5645 11.2025 20.5719 11.2368 20.5802C11.262 20.5862 11.2868 20.5925 11.3115 20.5989C11.3458 20.6078 11.3801 20.6176 11.4144 20.6275C11.4381 20.6344 11.4623 20.6413 11.486 20.6486C11.5213 20.6595 11.5561 20.6713 11.5904 20.6831C11.6126 20.691 11.6348 20.6979 11.6565 20.7057C11.6948 20.72 11.7322 20.7348 11.77 20.7495C11.7876 20.7569 11.8058 20.7633 11.8235 20.7707C11.8779 20.7933 11.9324 20.8174 11.9859 20.8425C11.9904 20.8445 11.9945 20.8465 11.9985 20.8489C12.0479 20.8721 12.0963 20.8962 12.1443 20.9218C12.1624 20.9311 12.1796 20.941 12.1972 20.9508C12.231 20.9695 12.2653 20.9882 12.2986 21.0079C12.3188 21.0197 12.3385 21.032 12.3586 21.0443C12.3889 21.0625 12.4192 21.0812 12.4489 21.1009C12.4691 21.1142 12.4893 21.1279 12.51 21.1417C12.5382 21.1609 12.5665 21.1801 12.5942 21.2003C12.6144 21.2146 12.6346 21.2293 12.6542 21.2441C12.6815 21.2647 12.7087 21.2854 12.7349 21.3061C12.7546 21.3213 12.7738 21.3371 12.7929 21.3528C12.8197 21.3745 12.8459 21.3966 12.8716 21.4193C12.8898 21.435 12.9084 21.4508 12.9261 21.4665C12.9528 21.4906 12.9786 21.5152 13.0048 21.5398C13.0209 21.5551 13.0376 21.5703 13.0537 21.5861C13.082 21.6141 13.1102 21.6432 13.138 21.6722C13.1501 21.685 13.1632 21.6978 13.1753 21.7111C13.2146 21.7534 13.253 21.7967 13.2908 21.841C13.2958 21.8474 13.3009 21.8538 13.3059 21.8597C13.3377 21.8981 13.3695 21.9369 13.3997 21.9768C13.4124 21.9925 13.424 22.0088 13.4361 22.025C13.4588 22.0555 13.4815 22.086 13.5032 22.117C13.5163 22.1357 13.5289 22.1554 13.542 22.1746C13.5617 22.2037 13.5808 22.2327 13.5995 22.2622C13.6126 22.2829 13.6252 22.3035 13.6378 22.3242C13.6555 22.3533 13.6731 22.3828 13.6898 22.4123C13.7019 22.434 13.714 22.4556 13.7256 22.4773C13.7422 22.5068 13.7579 22.5373 13.7735 22.5673C13.7846 22.5895 13.7952 22.6111 13.8063 22.6333C13.8214 22.6647 13.8356 22.6962 13.8497 22.7277C13.8598 22.7494 13.8699 22.771 13.8789 22.7932C13.8936 22.8266 13.9067 22.8606 13.9203 22.8946C13.9284 22.9152 13.9364 22.9359 13.9445 22.9566C13.9591 22.9959 13.9723 23.0353 13.9854 23.0751C13.9909 23.0914 13.997 23.1071 14.002 23.1234C14.0197 23.1795 14.0363 23.2366 14.052 23.2936C14.054 23.3025 14.056 23.3118 14.058 23.3207C14.0706 23.3694 14.0822 23.4181 14.0928 23.4673C14.0974 23.487 14.1009 23.5072 14.1044 23.5274C14.1105 23.5584 14.117 23.5889 14.1226 23.6204H25.0189V5.33919C25.0189 4.99965 25.3014 4.72408 25.6494 4.72408H34.7657C34.7813 4.72408 34.8293 4.72408 34.859 4.66946C34.8888 4.61533 34.8625 4.57645 34.8535 4.56415L32.8807 1.67656C32.6895 1.39705 32.3702 1.23023 32.0257 1.23023H15.5612C15.4694 1.23023 15.3831 1.26517 15.318 1.32865L14.2749 2.34629C13.9718 2.64204 13.5687 2.80492 13.14 2.80492H2.28197C1.71904 2.80492 1.26103 3.25174 1.26103 3.80091V19.5852Z"  />
    </symbol>
    <symbol id="fully-integrated" viewBox="0 0 40 28" fill="none">
 <path d="M2.28197 2.07469H13.14C13.2318 2.07469 13.318 2.03975 13.3831 1.97627L14.4262 0.95863C14.7294 0.662883 15.1324 0.5 15.5612 0.5H32.0257C32.7924 0.5 33.5042 0.871529 33.9299 1.49402L35.9032 4.38162C36.1831 4.79153 36.2088 5.31561 35.9707 5.75012C35.7327 6.18464 35.2706 6.45431 34.7657 6.45431H26.2799V7.29086H30.626C31.7781 7.29086 32.8146 7.95863 33.2666 8.99251L35.8113 14.811L38.0404 15.681C39.2308 16.1456 40 17.2537 40 18.5046V23.893C40 24.6966 39.3296 25.3506 38.5059 25.3506H35.9122C35.6106 27.1344 34.0187 28.5 32.1059 28.5C30.1932 28.5 28.6013 27.1344 28.2996 25.3506H14.1216C13.8199 27.1344 12.228 28.5 10.3153 28.5C8.40252 28.5 6.81059 27.1344 6.50895 25.3506H1.32812C0.595715 25.3506 0 24.7695 0 24.0549V4.30091C0 3.07315 1.02345 2.07469 2.28197 2.07469ZM32.1059 27.2698C33.5385 27.2698 34.7037 26.133 34.7037 24.7355C34.7037 23.338 33.5385 22.2012 32.1059 22.2012C30.6734 22.2012 29.5082 23.338 29.5082 24.7355C29.5082 26.133 30.6734 27.2698 32.1059 27.2698ZM26.2799 24.1204H28.2986C28.3037 24.0894 28.3102 24.0594 28.3163 24.0289C28.3203 24.0082 28.3238 23.9875 28.3284 23.9669C28.3385 23.9186 28.3501 23.8709 28.3622 23.8232C28.3647 23.8133 28.3667 23.8035 28.3697 23.7936C28.3849 23.7361 28.4015 23.6795 28.4192 23.6234C28.4242 23.6071 28.4303 23.5909 28.4358 23.5742C28.4489 23.5348 28.4625 23.4954 28.4767 23.4566C28.4847 23.4359 28.4928 23.4152 28.5014 23.3946C28.5145 23.3606 28.5276 23.3266 28.5422 23.2932C28.5513 23.271 28.5614 23.2494 28.5715 23.2277C28.5856 23.1957 28.5997 23.1647 28.6149 23.1333C28.626 23.1111 28.6366 23.0895 28.6482 23.0673C28.6633 23.0373 28.6794 23.0068 28.6956 22.9773C28.7072 22.9556 28.7193 22.934 28.7314 22.9123C28.748 22.8828 28.7657 22.8533 28.7834 22.8242C28.796 22.8035 28.8086 22.7829 28.8212 22.7622C28.8404 22.7327 28.8595 22.7037 28.8792 22.6741C28.8923 22.6549 28.9049 22.6357 28.918 22.617C28.9397 22.586 28.9624 22.5555 28.9856 22.525C28.9972 22.5088 29.0088 22.4925 29.0209 22.4768C29.0522 22.4364 29.084 22.3976 29.1163 22.3587C29.1208 22.3528 29.1253 22.3469 29.1304 22.341C29.1677 22.2967 29.2066 22.2534 29.2459 22.2111C29.258 22.1978 29.2706 22.1855 29.2832 22.1727C29.311 22.1437 29.3387 22.1146 29.3675 22.0861C29.3836 22.0703 29.4003 22.0551 29.4164 22.0398C29.4421 22.0152 29.4683 21.9906 29.4951 21.9665C29.5127 21.9508 29.5309 21.935 29.5491 21.9193C29.5753 21.8966 29.6015 21.8745 29.6282 21.8523L29.6858 21.8066C29.7125 21.7854 29.7397 21.7647 29.767 21.7441C29.7866 21.7293 29.8068 21.7146 29.827 21.7003C29.8547 21.6801 29.883 21.6609 29.9117 21.6412C29.9319 21.6279 29.9521 21.6142 29.9723 21.6009C30.002 21.5812 30.0328 21.5625 30.0631 21.5438C30.0827 21.532 30.1024 21.5197 30.1226 21.5079C30.1559 21.4882 30.1902 21.4695 30.2245 21.4508C30.2421 21.441 30.2593 21.4311 30.2764 21.4218C30.3253 21.3962 30.3743 21.3716 30.4237 21.3479C30.4277 21.3465 30.4313 21.3445 30.4353 21.3425C30.4888 21.3174 30.5433 21.2933 30.5977 21.2707C30.6154 21.2633 30.6335 21.2569 30.6512 21.2495C30.6885 21.2348 30.7264 21.22 30.7647 21.2057C30.7864 21.1979 30.8086 21.191 30.8303 21.1831C30.8651 21.1713 30.8999 21.1595 30.9352 21.1486C30.9589 21.1413 30.9826 21.1344 31.0068 21.1275C31.0411 21.1176 31.0754 21.1078 31.1097 21.0989C31.1344 21.0925 31.1591 21.0862 31.1844 21.0802C31.2187 21.0719 31.253 21.0645 31.2878 21.0571C31.313 21.0517 31.3382 21.0463 31.3639 21.0414C31.3992 21.035 31.4346 21.0286 31.4704 21.0232C31.4956 21.0187 31.5203 21.0148 31.546 21.0114C31.5828 21.0059 31.6202 21.0015 31.658 20.9971C31.6817 20.9946 31.7059 20.9912 31.7301 20.9892C31.7715 20.9853 31.8134 20.9823 31.8552 20.9799C31.8759 20.9784 31.8961 20.9764 31.9168 20.9759C31.9798 20.9725 32.0424 20.971 32.1059 20.971C32.1695 20.971 32.232 20.9725 32.2951 20.9759C32.3158 20.9764 32.3359 20.9784 32.3566 20.9799C32.3985 20.9823 32.4404 20.9853 32.4817 20.9892C32.5059 20.9912 32.5301 20.9946 32.5538 20.9971C32.5917 21.0015 32.629 21.0059 32.6658 21.0114C32.6916 21.0148 32.7163 21.0187 32.7415 21.0232C32.7773 21.0286 32.8126 21.035 32.8479 21.0414C32.8736 21.0463 32.8989 21.0517 32.9241 21.0571C32.9589 21.0645 32.9932 21.0719 33.0275 21.0802C33.0527 21.0862 33.0774 21.0925 33.1021 21.0989C33.1364 21.1078 33.1707 21.1176 33.205 21.1275C33.2293 21.1344 33.253 21.1413 33.2767 21.1486C33.312 21.1595 33.3468 21.1713 33.3816 21.1831C33.4033 21.191 33.4255 21.1979 33.4472 21.2057C33.4855 21.22 33.5233 21.2348 33.5607 21.2495C33.5783 21.2569 33.5965 21.2633 33.6141 21.2707C33.6686 21.2933 33.7231 21.3174 33.7765 21.3425C33.7806 21.3445 33.7841 21.3465 33.7881 21.3479C33.8376 21.3716 33.8865 21.3962 33.9354 21.4218C33.9526 21.4311 33.9697 21.441 33.9874 21.4508C34.0217 21.4695 34.056 21.4882 34.0893 21.5079C34.1095 21.5197 34.1291 21.532 34.1488 21.5438C34.1791 21.5625 34.2098 21.5812 34.2396 21.6009C34.2598 21.6142 34.2799 21.6279 34.3001 21.6412C34.3289 21.6609 34.3571 21.6801 34.3849 21.7003C34.405 21.7146 34.4252 21.7293 34.4449 21.7441C34.4721 21.7647 34.4994 21.7854 34.5261 21.8066L34.5836 21.8523C34.6103 21.8745 34.6366 21.8966 34.6628 21.9193C34.681 21.935 34.6991 21.9508 34.7168 21.9665C34.7435 21.9906 34.7697 22.0152 34.7955 22.0398C34.8116 22.0551 34.8282 22.0703 34.8444 22.0861C34.8731 22.1146 34.9009 22.1437 34.9286 22.1727C34.9412 22.1855 34.9538 22.1978 34.966 22.2111C35.0053 22.2534 35.0441 22.2967 35.0815 22.341C35.0865 22.3469 35.091 22.3528 35.0956 22.3587C35.1279 22.3976 35.1596 22.4364 35.1909 22.4768C35.203 22.4925 35.2146 22.5088 35.2262 22.525C35.2494 22.5555 35.2721 22.586 35.2938 22.617C35.3069 22.6357 35.3195 22.6549 35.3327 22.6741C35.3523 22.7037 35.3715 22.7327 35.3907 22.7622C35.4033 22.7829 35.4159 22.8035 35.4285 22.8242C35.4462 22.8533 35.4638 22.8828 35.4805 22.9123C35.4926 22.934 35.5047 22.9556 35.5163 22.9773C35.5324 23.0068 35.5486 23.0373 35.5637 23.0673C35.5753 23.0895 35.5859 23.1111 35.597 23.1333C35.6121 23.1647 35.6262 23.1957 35.6404 23.2277C35.6504 23.2494 35.6605 23.271 35.6696 23.2932C35.6842 23.3266 35.6974 23.3606 35.7105 23.3946C35.719 23.4152 35.7271 23.4359 35.7352 23.4566C35.7493 23.4954 35.7629 23.5348 35.776 23.5742C35.7816 23.5909 35.7876 23.6071 35.7927 23.6234C35.8103 23.6795 35.827 23.7361 35.8421 23.7936C35.8451 23.8035 35.8472 23.8133 35.8497 23.8232C35.8618 23.8709 35.8734 23.9186 35.8835 23.9669C35.888 23.9875 35.8916 24.0082 35.8956 24.0289C35.9016 24.0594 35.9082 24.0894 35.9132 24.1204H38.5059C38.6346 24.1204 38.739 24.0185 38.739 23.893V21.3155H37.7554V20.0852H38.739V18.5046C38.739 17.7596 38.281 17.0997 37.5723 16.8232L35.2126 15.9025H26.2799V24.1204ZM26.2799 14.6722H34.3798L32.1069 9.47526C31.8532 8.89557 31.2721 8.52109 30.626 8.52109H26.2799V14.6722ZM10.3153 27.2698C11.7478 27.2698 12.913 26.133 12.913 24.7355C12.913 23.338 11.7478 22.2012 10.3153 22.2012C10.2704 22.2012 10.226 22.2022 10.1816 22.2047C8.98815 22.2637 8.00454 23.1131 7.77049 24.2252C7.76192 24.2665 7.75385 24.3084 7.74729 24.3502C7.73418 24.4338 7.7256 24.519 7.72106 24.6051C7.71854 24.6484 7.71753 24.6917 7.71753 24.7355C7.71753 26.133 8.88272 27.2698 10.3153 27.2698ZM1.26103 20.0852H2.24464V21.3155H1.26103V24.0549C1.26103 24.0909 1.2913 24.1204 1.32812 24.1204H6.50795C6.51299 24.0899 6.51955 24.0599 6.5256 24.0298C6.52963 24.0087 6.53316 23.9875 6.5377 23.9664C6.54779 23.9191 6.55889 23.8724 6.571 23.8261C6.57402 23.8153 6.57604 23.804 6.57907 23.7931C6.5942 23.7361 6.61084 23.68 6.6285 23.6239C6.63404 23.6066 6.6401 23.5894 6.64565 23.5727C6.65876 23.5338 6.67188 23.4949 6.686 23.457C6.69407 23.4354 6.70265 23.4147 6.71072 23.3936C6.72383 23.3601 6.73745 23.3266 6.75107 23.2937C6.76066 23.271 6.77074 23.2489 6.78083 23.2268C6.79496 23.1957 6.80908 23.1647 6.82421 23.1337C6.8348 23.1111 6.84641 23.089 6.8575 23.0668C6.87263 23.0368 6.88827 23.0073 6.90442 22.9773C6.91652 22.9556 6.92862 22.934 6.94073 22.9123C6.95788 22.8828 6.97503 22.8537 6.99269 22.8247C7.00529 22.8036 7.01791 22.7829 7.03102 22.7622C7.04969 22.7327 7.06886 22.7037 7.08853 22.6751C7.10114 22.6554 7.11425 22.6357 7.12737 22.617C7.14906 22.586 7.17175 22.556 7.19395 22.526C7.20605 22.5093 7.21816 22.4925 7.23077 22.4763C7.26103 22.4374 7.29181 22.3991 7.32358 22.3612C7.32913 22.3543 7.33418 22.3474 7.33972 22.341C7.37756 22.2967 7.41589 22.2534 7.45523 22.2111C7.46784 22.1978 7.48045 22.185 7.49306 22.1717C7.52081 22.1427 7.54855 22.1141 7.5768 22.0861C7.59294 22.0703 7.60958 22.0551 7.62623 22.0393C7.65195 22.0147 7.67768 21.9906 7.70441 21.9665C7.72207 21.9508 7.74073 21.935 7.75889 21.9188C7.78461 21.8966 7.81084 21.8745 7.83758 21.8528C7.85675 21.8371 7.87592 21.8213 7.89559 21.8061C7.92182 21.7854 7.94905 21.7647 7.97629 21.7441C7.99596 21.7293 8.01614 21.7146 8.03632 21.7003C8.06406 21.6801 8.09231 21.6609 8.12055 21.6417C8.14124 21.6279 8.16141 21.6142 8.18159 21.6009C8.21135 21.5812 8.24161 21.5625 8.27188 21.5443C8.29206 21.532 8.31173 21.5197 8.3319 21.5079C8.36519 21.4882 8.39899 21.4695 8.43329 21.4508C8.45095 21.441 8.4681 21.4311 8.48625 21.4218C8.53417 21.3962 8.5826 21.3721 8.63203 21.3489C8.63607 21.347 8.6401 21.3445 8.64464 21.3425C8.69811 21.3174 8.75258 21.2933 8.80706 21.2707C8.82471 21.2633 8.84287 21.2569 8.86053 21.2495C8.89836 21.2348 8.93569 21.22 8.97402 21.2057C8.99571 21.1979 9.0179 21.191 9.0401 21.1831C9.0744 21.1713 9.10921 21.1595 9.14451 21.1486C9.16822 21.1413 9.19243 21.1344 9.21614 21.1275C9.25044 21.1176 9.28474 21.1078 9.31904 21.0989C9.34376 21.0925 9.36847 21.0862 9.39369 21.0802C9.42799 21.0719 9.4623 21.0645 9.4971 21.0571C9.52232 21.0517 9.54754 21.0463 9.57327 21.0414C9.60857 21.035 9.64388 21.0286 9.6797 21.0232C9.70492 21.0187 9.72964 21.0148 9.75536 21.0114C9.79218 21.0059 9.82951 21.0015 9.86734 20.9971C9.89105 20.9946 9.91526 20.9912 9.93947 20.9892C9.98083 20.9853 10.0227 20.9823 10.0646 20.9799C10.0852 20.9784 10.1054 20.9764 10.1261 20.9759C10.1892 20.9725 10.2517 20.971 10.3153 20.971C10.3788 20.971 10.4414 20.9725 10.5044 20.9759C10.5251 20.9764 10.5453 20.9784 10.566 20.9799C10.6078 20.9823 10.6497 20.9853 10.691 20.9892C10.7153 20.9912 10.7395 20.9946 10.7632 20.9971C10.801 21.0015 10.8383 21.0059 10.8752 21.0114C10.9009 21.0148 10.9256 21.0187 10.9508 21.0232C10.9866 21.0286 11.0219 21.035 11.0573 21.0414C11.083 21.0463 11.1082 21.0517 11.1334 21.0571C11.1682 21.0645 11.2025 21.0719 11.2368 21.0802C11.262 21.0862 11.2868 21.0925 11.3115 21.0989C11.3458 21.1078 11.3801 21.1176 11.4144 21.1275C11.4381 21.1344 11.4623 21.1413 11.486 21.1486C11.5213 21.1595 11.5561 21.1713 11.5904 21.1831C11.6126 21.191 11.6348 21.1979 11.6565 21.2057C11.6948 21.22 11.7322 21.2348 11.77 21.2495C11.7876 21.2569 11.8058 21.2633 11.8235 21.2707C11.8779 21.2933 11.9324 21.3174 11.9859 21.3425C11.9904 21.3445 11.9945 21.3465 11.9985 21.3489C12.0479 21.3721 12.0963 21.3962 12.1443 21.4218C12.1624 21.4311 12.1796 21.441 12.1972 21.4508C12.231 21.4695 12.2653 21.4882 12.2986 21.5079C12.3188 21.5197 12.3385 21.532 12.3586 21.5443C12.3889 21.5625 12.4192 21.5812 12.4489 21.6009C12.4691 21.6142 12.4893 21.6279 12.51 21.6417C12.5382 21.6609 12.5665 21.6801 12.5942 21.7003C12.6144 21.7146 12.6346 21.7293 12.6542 21.7441C12.6815 21.7647 12.7087 21.7854 12.7349 21.8061C12.7546 21.8213 12.7738 21.8371 12.7929 21.8528C12.8197 21.8745 12.8459 21.8966 12.8716 21.9193C12.8898 21.935 12.9084 21.9508 12.9261 21.9665C12.9528 21.9906 12.9786 22.0152 13.0048 22.0398C13.0209 22.0551 13.0376 22.0703 13.0537 22.0861C13.082 22.1141 13.1102 22.1432 13.138 22.1722C13.1501 22.185 13.1632 22.1978 13.1753 22.2111C13.2146 22.2534 13.253 22.2967 13.2908 22.341C13.2958 22.3474 13.3009 22.3538 13.3059 22.3597C13.3377 22.3981 13.3695 22.4369 13.3997 22.4768C13.4124 22.4925 13.424 22.5088 13.4361 22.525C13.4588 22.5555 13.4815 22.586 13.5032 22.617C13.5163 22.6357 13.5289 22.6554 13.542 22.6746C13.5617 22.7037 13.5808 22.7327 13.5995 22.7622C13.6126 22.7829 13.6252 22.8035 13.6378 22.8242C13.6555 22.8533 13.6731 22.8828 13.6898 22.9123C13.7019 22.934 13.714 22.9556 13.7256 22.9773C13.7422 23.0068 13.7579 23.0373 13.7735 23.0673C13.7846 23.0895 13.7952 23.1111 13.8063 23.1333C13.8214 23.1647 13.8356 23.1962 13.8497 23.2277C13.8598 23.2494 13.8699 23.271 13.8789 23.2932C13.8936 23.3266 13.9067 23.3606 13.9203 23.3946C13.9284 23.4152 13.9364 23.4359 13.9445 23.4566C13.9591 23.4959 13.9723 23.5353 13.9854 23.5751C13.9909 23.5914 13.997 23.6071 14.002 23.6234C14.0197 23.6795 14.0363 23.7366 14.052 23.7936C14.054 23.8025 14.056 23.8118 14.058 23.8207C14.0706 23.8694 14.0822 23.9181 14.0928 23.9673C14.0974 23.987 14.1009 24.0072 14.1044 24.0274C14.1105 24.0584 14.117 24.0889 14.1226 24.1204H25.0189V5.83919C25.0189 5.49965 25.3014 5.22408 25.6494 5.22408H34.7657C34.7813 5.22408 34.8293 5.22408 34.859 5.16946C34.8888 5.11533 34.8625 5.07645 34.8535 5.06415L32.8807 2.17656C32.6895 1.89705 32.3702 1.73023 32.0257 1.73023H15.5612C15.4694 1.73023 15.3831 1.76517 15.318 1.82865L14.2749 2.84629C13.9718 3.14204 13.5687 3.30492 13.14 3.30492H2.28197C1.71904 3.30492 1.26103 3.75174 1.26103 4.30091V20.0852Z"  />
  <path d="M17.6013 6.7981H21.5897C22.3953 6.7981 23.051 7.43732 23.051 8.22368V21.3886C23.051 21.7281 22.7686 22.0037 22.4205 22.0037H16.7711C16.423 22.0037 16.1406 21.7281 16.1406 21.3886V8.22368C16.1401 7.43732 16.7953 6.7981 17.6013 6.7981ZM17.4011 20.7735H21.7895V13.5397H17.4011V20.7735ZM17.4011 12.3095H21.7895V8.22368C21.7895 8.11592 21.6997 8.02832 21.5892 8.02832H17.6008C17.4904 8.02832 17.4006 8.11592 17.4006 8.22368L17.4011 12.3095Z"  />
    </symbol>
    <symbol id="alcove" viewBox="0 0 40 28" fill="none">
<path d="M2.28197 2.07469H13.14C13.2318 2.07469 13.318 2.03975 13.3831 1.97627L14.4262 0.95863C14.7294 0.662883 15.1324 0.5 15.5612 0.5H32.0257C32.7924 0.5 33.5042 0.871529 33.9299 1.49402L35.9032 4.38162C36.1831 4.79153 36.2088 5.31561 35.9707 5.75012C35.7327 6.18464 35.2706 6.45431 34.7657 6.45431H26.2799V7.29086H30.626C31.7781 7.29086 32.8146 7.95863 33.2666 8.99251L35.8113 14.811L38.0404 15.681C39.2308 16.1456 40 17.2537 40 18.5046V23.893C40 24.6966 39.3296 25.3506 38.5059 25.3506H35.9122C35.6106 27.1344 34.0187 28.5 32.1059 28.5C30.1932 28.5 28.6013 27.1344 28.2996 25.3506H14.1216C13.8199 27.1344 12.228 28.5 10.3153 28.5C8.40252 28.5 6.81059 27.1344 6.50895 25.3506H1.32812C0.595715 25.3506 0 24.7695 0 24.0549V4.30091C0 3.07315 1.02345 2.07469 2.28197 2.07469ZM32.1059 27.2698C33.5385 27.2698 34.7037 26.133 34.7037 24.7355C34.7037 23.338 33.5385 22.2012 32.1059 22.2012C30.6734 22.2012 29.5082 23.338 29.5082 24.7355C29.5082 26.133 30.6734 27.2698 32.1059 27.2698ZM26.2799 24.1204H28.2986C28.3037 24.0894 28.3102 24.0594 28.3163 24.0289C28.3203 24.0082 28.3238 23.9875 28.3284 23.9669C28.3385 23.9186 28.3501 23.8709 28.3622 23.8232C28.3647 23.8133 28.3667 23.8035 28.3697 23.7936C28.3849 23.7361 28.4015 23.6795 28.4192 23.6234C28.4242 23.6071 28.4303 23.5909 28.4358 23.5742C28.4489 23.5348 28.4625 23.4954 28.4767 23.4566C28.4847 23.4359 28.4928 23.4152 28.5014 23.3946C28.5145 23.3606 28.5276 23.3266 28.5422 23.2932C28.5513 23.271 28.5614 23.2494 28.5715 23.2277C28.5856 23.1957 28.5997 23.1647 28.6149 23.1333C28.626 23.1111 28.6366 23.0895 28.6482 23.0673C28.6633 23.0373 28.6794 23.0068 28.6956 22.9773C28.7072 22.9556 28.7193 22.934 28.7314 22.9123C28.748 22.8828 28.7657 22.8533 28.7834 22.8242C28.796 22.8035 28.8086 22.7829 28.8212 22.7622C28.8404 22.7327 28.8595 22.7037 28.8792 22.6741C28.8923 22.6549 28.9049 22.6357 28.918 22.617C28.9397 22.586 28.9624 22.5555 28.9856 22.525C28.9972 22.5088 29.0088 22.4925 29.0209 22.4768C29.0522 22.4364 29.084 22.3976 29.1163 22.3587C29.1208 22.3528 29.1253 22.3469 29.1304 22.341C29.1677 22.2967 29.2066 22.2534 29.2459 22.2111C29.258 22.1978 29.2706 22.1855 29.2832 22.1727C29.311 22.1437 29.3387 22.1146 29.3675 22.0861C29.3836 22.0703 29.4003 22.0551 29.4164 22.0398C29.4421 22.0152 29.4683 21.9906 29.4951 21.9665C29.5127 21.9508 29.5309 21.935 29.5491 21.9193C29.5753 21.8966 29.6015 21.8745 29.6282 21.8523L29.6858 21.8066C29.7125 21.7854 29.7397 21.7647 29.767 21.7441C29.7866 21.7293 29.8068 21.7146 29.827 21.7003C29.8547 21.6801 29.883 21.6609 29.9117 21.6412C29.9319 21.6279 29.9521 21.6142 29.9723 21.6009C30.002 21.5812 30.0328 21.5625 30.0631 21.5438C30.0827 21.532 30.1024 21.5197 30.1226 21.5079C30.1559 21.4882 30.1902 21.4695 30.2245 21.4508C30.2421 21.441 30.2593 21.4311 30.2764 21.4218C30.3253 21.3962 30.3743 21.3716 30.4237 21.3479C30.4277 21.3465 30.4313 21.3445 30.4353 21.3425C30.4888 21.3174 30.5433 21.2933 30.5977 21.2707C30.6154 21.2633 30.6335 21.2569 30.6512 21.2495C30.6885 21.2348 30.7264 21.22 30.7647 21.2057C30.7864 21.1979 30.8086 21.191 30.8303 21.1831C30.8651 21.1713 30.8999 21.1595 30.9352 21.1486C30.9589 21.1413 30.9826 21.1344 31.0068 21.1275C31.0411 21.1176 31.0754 21.1078 31.1097 21.0989C31.1344 21.0925 31.1591 21.0862 31.1844 21.0802C31.2187 21.0719 31.253 21.0645 31.2878 21.0571C31.313 21.0517 31.3382 21.0463 31.3639 21.0414C31.3992 21.035 31.4346 21.0286 31.4704 21.0232C31.4956 21.0187 31.5203 21.0148 31.546 21.0114C31.5828 21.0059 31.6202 21.0015 31.658 20.9971C31.6817 20.9946 31.7059 20.9912 31.7301 20.9892C31.7715 20.9853 31.8134 20.9823 31.8552 20.9799C31.8759 20.9784 31.8961 20.9764 31.9168 20.9759C31.9798 20.9725 32.0424 20.971 32.1059 20.971C32.1695 20.971 32.232 20.9725 32.2951 20.9759C32.3158 20.9764 32.3359 20.9784 32.3566 20.9799C32.3985 20.9823 32.4404 20.9853 32.4817 20.9892C32.5059 20.9912 32.5301 20.9946 32.5538 20.9971C32.5917 21.0015 32.629 21.0059 32.6658 21.0114C32.6916 21.0148 32.7163 21.0187 32.7415 21.0232C32.7773 21.0286 32.8126 21.035 32.8479 21.0414C32.8736 21.0463 32.8989 21.0517 32.9241 21.0571C32.9589 21.0645 32.9932 21.0719 33.0275 21.0802C33.0527 21.0862 33.0774 21.0925 33.1021 21.0989C33.1364 21.1078 33.1707 21.1176 33.205 21.1275C33.2293 21.1344 33.253 21.1413 33.2767 21.1486C33.312 21.1595 33.3468 21.1713 33.3816 21.1831C33.4033 21.191 33.4255 21.1979 33.4472 21.2057C33.4855 21.22 33.5233 21.2348 33.5607 21.2495C33.5783 21.2569 33.5965 21.2633 33.6141 21.2707C33.6686 21.2933 33.7231 21.3174 33.7765 21.3425C33.7806 21.3445 33.7841 21.3465 33.7881 21.3479C33.8376 21.3716 33.8865 21.3962 33.9354 21.4218C33.9526 21.4311 33.9697 21.441 33.9874 21.4508C34.0217 21.4695 34.056 21.4882 34.0893 21.5079C34.1095 21.5197 34.1291 21.532 34.1488 21.5438C34.1791 21.5625 34.2098 21.5812 34.2396 21.6009C34.2598 21.6142 34.2799 21.6279 34.3001 21.6412C34.3289 21.6609 34.3571 21.6801 34.3849 21.7003C34.405 21.7146 34.4252 21.7293 34.4449 21.7441C34.4721 21.7647 34.4994 21.7854 34.5261 21.8066L34.5836 21.8523C34.6103 21.8745 34.6366 21.8966 34.6628 21.9193C34.681 21.935 34.6991 21.9508 34.7168 21.9665C34.7435 21.9906 34.7697 22.0152 34.7955 22.0398C34.8116 22.0551 34.8282 22.0703 34.8444 22.0861C34.8731 22.1146 34.9009 22.1437 34.9286 22.1727C34.9412 22.1855 34.9538 22.1978 34.966 22.2111C35.0053 22.2534 35.0441 22.2967 35.0815 22.341C35.0865 22.3469 35.091 22.3528 35.0956 22.3587C35.1279 22.3976 35.1596 22.4364 35.1909 22.4768C35.203 22.4925 35.2146 22.5088 35.2262 22.525C35.2494 22.5555 35.2721 22.586 35.2938 22.617C35.3069 22.6357 35.3195 22.6549 35.3327 22.6741C35.3523 22.7037 35.3715 22.7327 35.3907 22.7622C35.4033 22.7829 35.4159 22.8035 35.4285 22.8242C35.4462 22.8533 35.4638 22.8828 35.4805 22.9123C35.4926 22.934 35.5047 22.9556 35.5163 22.9773C35.5324 23.0068 35.5486 23.0373 35.5637 23.0673C35.5753 23.0895 35.5859 23.1111 35.597 23.1333C35.6121 23.1647 35.6262 23.1957 35.6404 23.2277C35.6504 23.2494 35.6605 23.271 35.6696 23.2932C35.6842 23.3266 35.6974 23.3606 35.7105 23.3946C35.719 23.4152 35.7271 23.4359 35.7352 23.4566C35.7493 23.4954 35.7629 23.5348 35.776 23.5742C35.7816 23.5909 35.7876 23.6071 35.7927 23.6234C35.8103 23.6795 35.827 23.7361 35.8421 23.7936C35.8451 23.8035 35.8472 23.8133 35.8497 23.8232C35.8618 23.8709 35.8734 23.9186 35.8835 23.9669C35.888 23.9875 35.8916 24.0082 35.8956 24.0289C35.9016 24.0594 35.9082 24.0894 35.9132 24.1204H38.5059C38.6346 24.1204 38.739 24.0185 38.739 23.893V21.3155H37.7554V20.0852H38.739V18.5046C38.739 17.7596 38.281 17.0997 37.5723 16.8232L35.2126 15.9025H26.2799V24.1204ZM26.2799 14.6722H34.3798L32.1069 9.47526C31.8532 8.89557 31.2721 8.52109 30.626 8.52109H26.2799V14.6722ZM10.3153 27.2698C11.7478 27.2698 12.913 26.133 12.913 24.7355C12.913 23.338 11.7478 22.2012 10.3153 22.2012C10.2704 22.2012 10.226 22.2022 10.1816 22.2047C8.98815 22.2637 8.00454 23.1131 7.77049 24.2252C7.76192 24.2665 7.75385 24.3084 7.74729 24.3502C7.73418 24.4338 7.7256 24.519 7.72106 24.6051C7.71854 24.6484 7.71753 24.6917 7.71753 24.7355C7.71753 26.133 8.88272 27.2698 10.3153 27.2698ZM1.26103 20.0852H2.24464V21.3155H1.26103V24.0549C1.26103 24.0909 1.2913 24.1204 1.32812 24.1204H6.50795C6.51299 24.0899 6.51955 24.0599 6.5256 24.0298C6.52963 24.0087 6.53316 23.9875 6.5377 23.9664C6.54779 23.9191 6.55889 23.8724 6.571 23.8261C6.57402 23.8153 6.57604 23.804 6.57907 23.7931C6.5942 23.7361 6.61084 23.68 6.6285 23.6239C6.63404 23.6066 6.6401 23.5894 6.64565 23.5727C6.65876 23.5338 6.67188 23.4949 6.686 23.457C6.69407 23.4354 6.70265 23.4147 6.71072 23.3936C6.72383 23.3601 6.73745 23.3266 6.75107 23.2937C6.76066 23.271 6.77074 23.2489 6.78083 23.2268C6.79496 23.1957 6.80908 23.1647 6.82421 23.1337C6.8348 23.1111 6.84641 23.089 6.8575 23.0668C6.87263 23.0368 6.88827 23.0073 6.90442 22.9773C6.91652 22.9556 6.92862 22.934 6.94073 22.9123C6.95788 22.8828 6.97503 22.8537 6.99269 22.8247C7.00529 22.8036 7.01791 22.7829 7.03102 22.7622C7.04969 22.7327 7.06886 22.7037 7.08853 22.6751C7.10114 22.6554 7.11425 22.6357 7.12737 22.617C7.14906 22.586 7.17175 22.556 7.19395 22.526C7.20605 22.5093 7.21816 22.4925 7.23077 22.4763C7.26103 22.4374 7.29181 22.3991 7.32358 22.3612C7.32913 22.3543 7.33418 22.3474 7.33972 22.341C7.37756 22.2967 7.41589 22.2534 7.45523 22.2111C7.46784 22.1978 7.48045 22.185 7.49306 22.1717C7.52081 22.1427 7.54855 22.1141 7.5768 22.0861C7.59294 22.0703 7.60958 22.0551 7.62623 22.0393C7.65195 22.0147 7.67768 21.9906 7.70441 21.9665C7.72207 21.9508 7.74073 21.935 7.75889 21.9188C7.78461 21.8966 7.81084 21.8745 7.83758 21.8528C7.85675 21.8371 7.87592 21.8213 7.89559 21.8061C7.92182 21.7854 7.94905 21.7647 7.97629 21.7441C7.99596 21.7293 8.01614 21.7146 8.03632 21.7003C8.06406 21.6801 8.09231 21.6609 8.12055 21.6417C8.14124 21.6279 8.16141 21.6142 8.18159 21.6009C8.21135 21.5812 8.24161 21.5625 8.27188 21.5443C8.29206 21.532 8.31173 21.5197 8.3319 21.5079C8.36519 21.4882 8.39899 21.4695 8.43329 21.4508C8.45095 21.441 8.4681 21.4311 8.48625 21.4218C8.53417 21.3962 8.5826 21.3721 8.63203 21.3489C8.63607 21.347 8.6401 21.3445 8.64464 21.3425C8.69811 21.3174 8.75258 21.2933 8.80706 21.2707C8.82471 21.2633 8.84287 21.2569 8.86053 21.2495C8.89836 21.2348 8.93569 21.22 8.97402 21.2057C8.99571 21.1979 9.0179 21.191 9.0401 21.1831C9.0744 21.1713 9.10921 21.1595 9.14451 21.1486C9.16822 21.1413 9.19243 21.1344 9.21614 21.1275C9.25044 21.1176 9.28474 21.1078 9.31904 21.0989C9.34376 21.0925 9.36847 21.0862 9.39369 21.0802C9.42799 21.0719 9.4623 21.0645 9.4971 21.0571C9.52232 21.0517 9.54754 21.0463 9.57327 21.0414C9.60857 21.035 9.64388 21.0286 9.6797 21.0232C9.70492 21.0187 9.72964 21.0148 9.75536 21.0114C9.79218 21.0059 9.82951 21.0015 9.86734 20.9971C9.89105 20.9946 9.91526 20.9912 9.93947 20.9892C9.98083 20.9853 10.0227 20.9823 10.0646 20.9799C10.0852 20.9784 10.1054 20.9764 10.1261 20.9759C10.1892 20.9725 10.2517 20.971 10.3153 20.971C10.3788 20.971 10.4414 20.9725 10.5044 20.9759C10.5251 20.9764 10.5453 20.9784 10.566 20.9799C10.6078 20.9823 10.6497 20.9853 10.691 20.9892C10.7153 20.9912 10.7395 20.9946 10.7632 20.9971C10.801 21.0015 10.8383 21.0059 10.8752 21.0114C10.9009 21.0148 10.9256 21.0187 10.9508 21.0232C10.9866 21.0286 11.0219 21.035 11.0573 21.0414C11.083 21.0463 11.1082 21.0517 11.1334 21.0571C11.1682 21.0645 11.2025 21.0719 11.2368 21.0802C11.262 21.0862 11.2868 21.0925 11.3115 21.0989C11.3458 21.1078 11.3801 21.1176 11.4144 21.1275C11.4381 21.1344 11.4623 21.1413 11.486 21.1486C11.5213 21.1595 11.5561 21.1713 11.5904 21.1831C11.6126 21.191 11.6348 21.1979 11.6565 21.2057C11.6948 21.22 11.7322 21.2348 11.77 21.2495C11.7876 21.2569 11.8058 21.2633 11.8235 21.2707C11.8779 21.2933 11.9324 21.3174 11.9859 21.3425C11.9904 21.3445 11.9945 21.3465 11.9985 21.3489C12.0479 21.3721 12.0963 21.3962 12.1443 21.4218C12.1624 21.4311 12.1796 21.441 12.1972 21.4508C12.231 21.4695 12.2653 21.4882 12.2986 21.5079C12.3188 21.5197 12.3385 21.532 12.3586 21.5443C12.3889 21.5625 12.4192 21.5812 12.4489 21.6009C12.4691 21.6142 12.4893 21.6279 12.51 21.6417C12.5382 21.6609 12.5665 21.6801 12.5942 21.7003C12.6144 21.7146 12.6346 21.7293 12.6542 21.7441C12.6815 21.7647 12.7087 21.7854 12.7349 21.8061C12.7546 21.8213 12.7738 21.8371 12.7929 21.8528C12.8197 21.8745 12.8459 21.8966 12.8716 21.9193C12.8898 21.935 12.9084 21.9508 12.9261 21.9665C12.9528 21.9906 12.9786 22.0152 13.0048 22.0398C13.0209 22.0551 13.0376 22.0703 13.0537 22.0861C13.082 22.1141 13.1102 22.1432 13.138 22.1722C13.1501 22.185 13.1632 22.1978 13.1753 22.2111C13.2146 22.2534 13.253 22.2967 13.2908 22.341C13.2958 22.3474 13.3009 22.3538 13.3059 22.3597C13.3377 22.3981 13.3695 22.4369 13.3997 22.4768C13.4124 22.4925 13.424 22.5088 13.4361 22.525C13.4588 22.5555 13.4815 22.586 13.5032 22.617C13.5163 22.6357 13.5289 22.6554 13.542 22.6746C13.5617 22.7037 13.5808 22.7327 13.5995 22.7622C13.6126 22.7829 13.6252 22.8035 13.6378 22.8242C13.6555 22.8533 13.6731 22.8828 13.6898 22.9123C13.7019 22.934 13.714 22.9556 13.7256 22.9773C13.7422 23.0068 13.7579 23.0373 13.7735 23.0673C13.7846 23.0895 13.7952 23.1111 13.8063 23.1333C13.8214 23.1647 13.8356 23.1962 13.8497 23.2277C13.8598 23.2494 13.8699 23.271 13.8789 23.2932C13.8936 23.3266 13.9067 23.3606 13.9203 23.3946C13.9284 23.4152 13.9364 23.4359 13.9445 23.4566C13.9591 23.4959 13.9723 23.5353 13.9854 23.5751C13.9909 23.5914 13.997 23.6071 14.002 23.6234C14.0197 23.6795 14.0363 23.7366 14.052 23.7936C14.054 23.8025 14.056 23.8118 14.058 23.8207C14.0706 23.8694 14.0822 23.9181 14.0928 23.9673C14.0974 23.987 14.1009 24.0072 14.1044 24.0274C14.1105 24.0584 14.117 24.0889 14.1226 24.1204H25.0189V5.83919C25.0189 5.49965 25.3014 5.22408 25.6494 5.22408H34.7657C34.7813 5.22408 34.8293 5.22408 34.859 5.16946C34.8888 5.11533 34.8625 5.07645 34.8535 5.06415L32.8807 2.17656C32.6895 1.89705 32.3702 1.73023 32.0257 1.73023H15.5612C15.4694 1.73023 15.3831 1.76517 15.318 1.82865L14.2749 2.84629C13.9718 3.14204 13.5687 3.30492 13.14 3.30492H2.28197C1.71904 3.30492 1.26103 3.75174 1.26103 4.30091V20.0852Z"  />
  <path d="M17.6013 6.7981H21.5897C22.3953 6.7981 23.051 7.43732 23.051 8.22368V21.3886C23.051 21.7281 22.7686 22.0037 22.4205 22.0037H16.7711C16.423 22.0037 16.1406 21.7281 16.1406 21.3886V8.22368C16.1401 7.43732 16.7953 6.7981 17.6013 6.7981ZM17.4011 20.7735H21.7895V13.5397H17.4011V20.7735ZM17.4011 12.3095H21.7895V8.22368C21.7895 8.11592 21.6997 8.02832 21.5892 8.02832H17.6008C17.4904 8.02832 17.4006 8.11592 17.4006 8.22368V12.3095H17.4011ZM4.84371 6.7981H12.5562C13.4475 6.7981 14.1728 7.50572 14.1728 8.37525V11.9631C14.1728 12.8326 13.4475 13.5402 12.5562 13.5402H4.8432C3.9519 13.5402 3.22656 12.8326 3.22656 11.9631V8.37525C3.22706 7.50572 3.95241 6.7981 4.84371 6.7981ZM4.4881 11.9626C4.4881 12.1535 4.64749 12.3095 4.84371 12.3095H12.5562C12.7524 12.3095 12.9118 12.154 12.9118 11.9626V8.37476C12.9118 8.18382 12.7524 8.02783 12.5562 8.02783H4.8432C4.64699 8.02783 4.48759 8.18333 4.48759 8.37476V11.9626H4.4881Z"  />
    </symbol>
    <symbol id="heart" viewBox="0 0 24 24" >
<g clip-path="url(#clip0_58_198)">
    <path d="M21.3401 4.60999C20.8294 4.099 20.2229 3.69364 19.5555 3.41708C18.888 3.14052 18.1726 2.99817 17.4501 2.99817C16.7276 2.99817 16.0122 3.14052 15.3448 3.41708C14.6773 3.69364 14.0709 4.099 13.5601 4.60999L12.5001 5.66999L11.4401 4.60999C10.4084 3.5783 9.00915 2.9987 7.55012 2.9987C6.09108 2.9987 4.69181 3.5783 3.66012 4.60999C2.62843 5.64169 2.04883 7.04096 2.04883 8.49999C2.04883 9.95903 2.62843 11.3583 3.66012 12.39L4.72012 13.45L12.5001 21.23L20.2801 13.45L21.3401 12.39C21.8511 11.8792 22.2565 11.2728 22.533 10.6053C22.8096 9.93789 22.9519 9.22248 22.9519 8.49999C22.9519 7.77751 22.8096 7.0621 22.533 6.39464C22.2565 5.72718 21.8511 5.12075 21.3401 4.60999Z"  stroke-width="2.3" stroke-linecap="round" stroke-linejoin="round" />
  </g>
  <defs>
    <clipPath id="clip0_58_198">
      <rect width="24" height="24" fill="white" transform="translate(0.5)" />
    </clipPath>
  </defs>
    </symbol>
    <symbol id="star" viewBox="0 0 16 16" >
<path d="M6.20021 4.69703L8 1.28579L9.79979 4.69703C9.95896 4.9987 10.2491 5.20947 10.5851 5.26762L14.3856 5.92519L11.6975 8.69103C11.4598 8.93563 11.3489 9.27666 11.3975 9.61427L11.9465 13.4319L8.48537 11.7301C8.17929 11.5795 7.82071 11.5796 7.51463 11.7301L4.05348 13.4319L4.6025 9.61427C4.65105 9.27666 4.54024 8.93563 4.30252 8.69103L1.6144 5.92519L5.41486 5.26762C5.75095 5.20947 6.04104 4.9987 6.20021 4.69703ZM14.5177 5.78928L14.5175 5.78947L14.5177 5.78928ZM3.8834 13.5155C3.88344 13.5155 3.88349 13.5155 3.88353 13.5155L3.8834 13.5155Z"  stroke-width="1.2"/>
    </symbol>
    <symbol id="adult" viewBox="0 0 20 20" fill="none">
    <path d="M5.66666 15.0833H2.91666C2.74999 15.0833 2.66666 15 2.58333 14.9166C2.49999 14.8333 2.41666 14.6666 2.49999 14.5C2.99999 13.0833 4.24999 12.25 5.66666 12.25C7.41666 12.25 8.83333 10.75 8.83333 8.99998C8.83333 7.24998 7.41666 5.58331 5.66666 5.58331C3.91666 5.58331 2.49999 7.08331 2.49999 8.91665C2.49999 9.74998 2.83333 10.5833 3.33333 11.1666C2.24999 11.75 1.41666 12.6666 0.91666 13.9166C0.749994 14.5 0.833327 15.25 1.24999 15.8333C1.66666 16.4166 2.24999 16.75 2.91666 16.75H5.66666C6.16666 16.75 6.49999 16.4166 6.49999 15.9166C6.49999 15.4166 6.16666 15.0833 5.66666 15.0833ZM4.16666 8.91665C4.16666 7.99998 4.83333 7.33331 5.66666 7.33331C6.49999 7.33331 7.16666 8.08331 7.16666 8.91665C7.16666 9.83331 6.49999 10.5 5.66666 10.5C4.83333 10.5 4.16666 9.74998 4.16666 8.91665Z"  />
  <path d="M19.0833 13.4167C18.5 11.8333 17.3333 10.6667 16 10C16.75 9.33333 17.1666 8.33333 17.1666 7.16667C17.1666 5 15.5 3.25 13.5 3.25C11.5 3.25 9.83331 5 9.83331 7.16667C9.83331 8.25 10.25 9.25 11 10C9.66664 10.6667 8.49998 11.8333 7.91664 13.4167C7.49998 14.1667 7.66664 15 8.08331 15.6667C8.49998 16.3333 9.24998 16.6667 9.99998 16.6667H16.9166C17.6666 16.6667 18.4166 16.25 18.8333 15.6667C19.3333 15 19.4166 14.1667 19.0833 13.4167ZM11.4166 7.25C11.4166 6 12.3333 5 13.4166 5C14.5 5 15.4166 6 15.4166 7.25C15.4166 8.5 14.5 9.5 13.4166 9.5C12.3333 9.5 11.4166 8.41667 11.4166 7.25ZM17.4166 14.75C17.3333 14.8333 17.1666 15.0833 16.9166 15.0833H9.99998C9.66664 15.0833 9.49998 14.8333 9.49998 14.75C9.41664 14.6667 9.24998 14.3333 9.41665 14C10.0833 12.25 11.75 11.0833 13.5 11.0833C15.25 11.0833 16.9166 12.25 17.5833 14C17.6666 14.3333 17.5 14.6667 17.4166 14.75Z"  />
        </symbol>
    <symbol id="petrol" viewBox="0 0 20 20" fill="none">
<path d="M13.475 4.025L13.4834 4.01667L10.3834 0.916667L9.50004 1.8L11.2584 3.55833C10.475 3.85833 9.91671 4.60833 9.91671 5.5C9.91671 5.77359 9.97059 6.0445 10.0753 6.29726C10.18 6.55002 10.3334 6.77968 10.5269 6.97314C10.9176 7.36384 11.4475 7.58333 12 7.58333C12.3 7.58333 12.575 7.51667 12.8334 7.40833V13.4167C12.8334 13.6377 12.7456 13.8496 12.5893 14.0059C12.433 14.1622 12.2211 14.25 12 14.25C11.779 14.25 11.5671 14.1622 11.4108 14.0059C11.2545 13.8496 11.1667 13.6377 11.1667 13.4167V9.66667C11.1667 9.22464 10.9911 8.80072 10.6786 8.48816C10.366 8.17559 9.94207 8 9.50004 8H8.66671V2.16667C8.66671 1.72464 8.49111 1.30072 8.17855 0.988155C7.86599 0.675595 7.44207 0.5 7.00004 0.5H2.00004C1.55801 0.5 1.13409 0.675595 0.821529 0.988155C0.508969 1.30072 0.333374 1.72464 0.333374 2.16667V15.5H8.66671V9.25H9.91671V13.4167C9.91671 13.9692 10.1362 14.4991 10.5269 14.8898C10.9176 15.2805 11.4475 15.5 12 15.5C12.2736 15.5 12.5445 15.4461 12.7973 15.3414C13.0501 15.2367 13.2797 15.0833 13.4732 14.8898C13.6666 14.6964 13.8201 14.4667 13.9248 14.2139C14.0295 13.9612 14.0834 13.6903 14.0834 13.4167V5.5C14.0834 4.925 13.85 4.4 13.475 4.025ZM7.00004 9.25V13.8333H2.00004V8H7.00004V9.25ZM7.00004 6.33333H2.00004V2.16667H7.00004V6.33333ZM12 6.33333C11.779 6.33333 11.5671 6.24554 11.4108 6.08926C11.2545 5.93297 11.1667 5.72101 11.1667 5.5C11.1667 5.27899 11.2545 5.06702 11.4108 4.91074C11.5671 4.75446 11.779 4.66667 12 4.66667C12.2211 4.66667 12.433 4.75446 12.5893 4.91074C12.7456 5.06702 12.8334 5.27899 12.8334 5.5C12.8334 5.72101 12.7456 5.93297 12.5893 6.08926C12.433 6.24554 12.2211 6.33333 12 6.33333Z"  />
    </symbol>
    <symbol id="beds" viewBox="0 0 20 20" fill="none">
<path d="M1.875 16.25V11.875C1.87696 11.2126 2.14098 10.5778 2.6094 10.1094C3.07781 9.64098 3.71256 9.37696 4.375 9.375H15.625C16.2874 9.37696 16.9222 9.64098 17.3906 10.1094C17.859 10.5778 18.123 11.2126 18.125 11.875V16.25M15 9.375H3.75V5.3125C3.75124 4.89848 3.91625 4.50177 4.20901 4.20901C4.50177 3.91625 4.89848 3.75124 5.3125 3.75H14.6875C15.1015 3.75124 15.4982 3.91625 15.791 4.20901C16.0837 4.50177 16.2488 4.89848 16.25 5.3125V9.375H15Z"  stroke-width="1.4" stroke-linecap="round" stroke-linejoin="round" />
  <path d="M1.875 16.25V15.9375C1.87572 15.6891 1.97473 15.451 2.15038 15.2754C2.32604 15.0997 2.56408 15.0007 2.8125 15H17.1875C17.4359 15.0007 17.674 15.0997 17.8496 15.2754C18.0253 15.451 18.1243 15.6891 18.125 15.9375V16.25M4.375 9.375V8.75C4.37593 8.41876 4.50792 8.10136 4.74214 7.86714C4.97636 7.63292 5.29376 7.50093 5.625 7.5H8.75C9.08124 7.50093 9.39864 7.63292 9.63286 7.86714C9.86708 8.10136 9.99907 8.41876 10 8.75M10 8.75V9.375M10 8.75C10.0009 8.41876 10.1329 8.10136 10.3671 7.86714C10.6014 7.63292 10.9188 7.50093 11.25 7.5H14.375C14.7062 7.50093 15.0236 7.63292 15.2579 7.86714C15.4921 8.10136 15.6241 8.41876 15.625 8.75V9.375"  stroke-width="1.4" stroke-linecap="round" stroke-linejoin="round" />
 </symbol>
    <symbol id="radio" viewBox="0 0 20 20" fill="none" >
 <path d="M1.66663 11.6667C1.66663 8.52417 1.66663 6.9525 2.64329 5.97667C3.61913 5 5.19079 5 8.33329 5H11.6666C14.8091 5 16.3808 5 17.3566 5.97667C18.3333 6.9525 18.3333 8.52417 18.3333 11.6667C18.3333 14.8092 18.3333 16.3808 17.3566 17.3567C16.3808 18.3333 14.8091 18.3333 11.6666 18.3333H8.33329C5.19079 18.3333 3.61913 18.3333 2.64329 17.3567C1.66663 16.3808 1.66663 14.8092 1.66663 11.6667Z" stroke-width="1.3" />
  <path d="M4.16663 9.16667C4.16663 8.72464 4.34222 8.30072 4.65478 7.98816C4.96734 7.6756 5.39127 7.5 5.83329 7.5H14.1666C14.6087 7.5 15.0326 7.6756 15.3451 7.98816C15.6577 8.30072 15.8333 8.72464 15.8333 9.16667C15.8333 9.60869 15.6577 10.0326 15.3451 10.3452C15.0326 10.6577 14.6087 10.8333 14.1666 10.8333H5.83329C5.39127 10.8333 4.96734 10.6577 4.65478 10.3452C4.34222 10.0326 4.16663 9.60869 4.16663 9.16667ZM7.49996 14.1667C7.49996 14.4982 7.36826 14.8161 7.13384 15.0505C6.89942 15.285 6.58148 15.4167 6.24996 15.4167C5.91844 15.4167 5.6005 15.285 5.36608 15.0505C5.13166 14.8161 4.99996 14.4982 4.99996 14.1667C4.99996 13.8351 5.13166 13.5172 5.36608 13.2828C5.6005 13.0484 5.91844 12.9167 6.24996 12.9167C6.58148 12.9167 6.89942 13.0484 7.13384 13.2828C7.36826 13.5172 7.49996 13.8351 7.49996 14.1667Z" stroke-width="1.3" />
  <path d="M12.5 9.58335V10.8334M10.8333 14.1667H15M5.41663 5.00002L12.5 1.66669" stroke-width="1.3" stroke-linecap="round" />
 </symbol>
    <symbol id="air-conditioner" viewBox="0 0 20 20" fill="none">
<path d="M17.8571 0.714294H2.1428C1.76392 0.714294 1.40056 0.864804 1.13265 1.13271C0.864743 1.40062 0.714233 1.76399 0.714233 2.14287V9.28572C0.714233 9.6646 0.864743 10.028 1.13265 10.2959C1.40056 10.5638 1.76392 10.7143 2.1428 10.7143H17.8571C18.236 10.7143 18.5993 10.5638 18.8672 10.2959C19.1352 10.028 19.2857 9.6646 19.2857 9.28572V2.14287C19.2857 1.76399 19.1352 1.40062 18.8672 1.13271C18.5993 0.864804 18.236 0.714294 17.8571 0.714294Z"  stroke-width="1.5" stroke-linecap="round" stroke-linejoin="round" />
    <path d="M15.7143 10.7143V7.85716C15.7143 7.47828 15.5638 7.11492 15.2958 6.84701C15.0279 6.5791 14.6646 6.42859 14.2857 6.42859H5.71427C5.33539 6.42859 4.97202 6.5791 4.70412 6.84701C4.43621 7.11492 4.2857 7.47828 4.2857 7.85716V10.7143M3.57141 17.8572H3.71427C4.2447 17.8572 4.75341 17.6464 5.12848 17.2714C5.50355 16.8963 5.71427 16.3876 5.71427 15.8572V14.2857M16.4286 17.8572H16.2857C15.7553 17.8572 15.2466 17.6464 14.8715 17.2714C14.4964 16.8963 14.2857 16.3876 14.2857 15.8572V14.2857M9.99998 19.2857V14.2857"  stroke-width="1.5" stroke-linecap="round" stroke-linejoin="round" />
   </symbol>
    <symbol id="cd" viewBox="0 0 20 20" fill="none">
<path d="M10 17.5C14.1421 17.5 17.5 14.1421 17.5 10C17.5 5.85786 14.1421 2.5 10 2.5C5.85786 2.5 2.5 5.85786 2.5 10C2.5 14.1421 5.85786 17.5 10 17.5Z" stroke-width="1.5" />
  <path d="M5.41663 10C5.41663 7.46877 7.46871 5.41669 9.99996 5.41669" stroke-width="1.5" stroke-linecap="round" />
  <path d="M9.99996 12.0834C11.1506 12.0834 12.0833 11.1506 12.0833 10C12.0833 8.84943 11.1506 7.91669 9.99996 7.91669C8.84937 7.91669 7.91663 8.84943 7.91663 10C7.91663 11.1506 8.84937 12.0834 9.99996 12.0834Z" stroke-width="1.5" />
 </symbol>
    <symbol id="hob" viewBox="0 0 20 20" fill="none">
 <path d="M7.49996 4.16669H17.5C17.721 4.16669 17.9329 4.25448 18.0892 4.41076C18.2455 4.56705 18.3333 4.77901 18.3333 5.00002V15.8334C18.3333 16.0544 18.2455 16.2663 18.0892 16.4226C17.9329 16.5789 17.721 16.6667 17.5 16.6667H7.49996M7.49996 4.16669H2.49996C2.27895 4.16669 2.06698 4.25448 1.9107 4.41076C1.75442 4.56705 1.66663 4.77901 1.66663 5.00002V15.8334C1.66663 16.0544 1.75442 16.2663 1.9107 16.4226C2.06698 16.5789 2.27895 16.6667 2.49996 16.6667H7.49996M7.49996 4.16669V16.6667"  stroke-width="1.5" />
  <path d="M4.58325 7.08335V8.75002M15.4166 6.66669L10.4166 13.75"  stroke-width="1.5" stroke-linecap="round" stroke-linejoin="round" />
  <path d="M5.41667 11.25C5.41667 10.7898 5.04357 10.4167 4.58333 10.4167C4.1231 10.4167 3.75 10.7898 3.75 11.25C3.75 11.7103 4.1231 12.0834 4.58333 12.0834C5.04357 12.0834 5.41667 11.7103 5.41667 11.25Z"  />
  <path d="M5.41667 13.75C5.41667 13.2898 5.04357 12.9167 4.58333 12.9167C4.1231 12.9167 3.75 13.2898 3.75 13.75C3.75 14.2103 4.1231 14.5834 4.58333 14.5834C5.04357 14.5834 5.41667 14.2103 5.41667 13.75Z"  />
   </symbol>
    <symbol id="toilet" viewBox="0 0 20 20" fill="none">
<path d="M15 2.5C16.2116 2.5 17.0433 3.52917 17.525 4.57083C18.0008 5.60417 18.29 6.9525 18.3291 8.41167L18.3333 8.75V16.6667C18.3334 16.779 18.3108 16.8901 18.2668 16.9935C18.2229 17.0968 18.1585 17.1902 18.0776 17.268C17.9966 17.3459 17.9008 17.4065 17.7958 17.4464C17.6908 17.4863 17.5788 17.5045 17.4666 17.5L17.3633 17.4883L15 17.095L12.6366 17.4883C12.5366 17.505 12.4344 17.5033 12.335 17.4833L12.2366 17.4575L9.99996 16.7117L7.76329 17.4575C7.64597 17.4966 7.52143 17.5091 7.39869 17.4941C7.27594 17.479 7.15808 17.4369 7.05365 17.3707C6.94922 17.3045 6.86083 17.2158 6.7949 17.1112C6.72897 17.0066 6.68714 16.8886 6.67246 16.7658L6.66663 16.6667V14.2275C6.22413 14.6858 5.66996 15 4.99996 15C3.78829 15 2.95663 13.9708 2.47496 12.9292C1.96329 11.8167 1.66663 10.3383 1.66663 8.75C1.66663 7.16167 1.96246 5.68333 2.47496 4.57083C2.93413 3.57583 3.71329 2.59333 4.83746 2.50667L4.99996 2.5H15ZM15 4.16667H7.31829C7.39329 4.3 7.46163 4.435 7.52413 4.57083C8.03746 5.68333 8.33329 7.16167 8.33329 8.75V15.5108L9.73663 15.0425C9.90757 14.9856 10.0924 14.9856 10.2633 15.0425L12.5675 15.8108L14.8633 15.4275C14.9533 15.4125 15.0466 15.4125 15.1366 15.4275L16.6666 15.6833V8.75C16.6666 7.34667 16.4025 6.11667 16.0108 5.26917C15.5875 4.35 15.1691 4.16667 15 4.16667ZM4.99996 4.16667C4.83079 4.16667 4.41246 4.35 3.98913 5.26917C3.59746 6.11667 3.33329 7.34667 3.33329 8.75C3.33329 10.1533 3.59746 11.3833 3.98913 12.2308C4.41246 13.15 4.83079 13.3333 4.99996 13.3333C5.16913 13.3333 5.58746 13.15 6.01079 12.2308C6.40246 11.3833 6.66663 10.1533 6.66663 8.75C6.66663 7.34667 6.40246 6.11667 6.01079 5.26917C5.58746 4.35 5.16913 4.16667 4.99996 4.16667ZM4.99996 7.08333C5.45996 7.08333 5.83329 7.82917 5.83329 8.75C5.83329 9.67083 5.45996 10.4167 4.99996 10.4167C4.53996 10.4167 4.16663 9.67083 4.16663 8.75C4.16663 7.82917 4.53996 7.08333 4.99996 7.08333Z"  />
 </symbol>
    <symbol id="freezer" viewBox="0 0 20 20" fill="none">
<path d="M14.625 1.875H5.37915C4.68879 1.875 4.12915 2.43464 4.12915 3.125V15.8667C4.12915 16.557 4.68879 17.1167 5.37915 17.1167H14.625C15.3153 17.1167 15.875 16.557 15.875 15.8667V3.125C15.875 2.43464 15.3153 1.875 14.625 1.875Z"  stroke-width="1.3" stroke-linecap="round" stroke-linejoin="round" />
  <path d="M4.12915 8.20416H15.8708M6.44582 6.60416V4.07916M6.44582 12.15V9.625M5.26665 17.1167V17.5542C5.26665 17.7048 5.32622 17.8494 5.43237 17.9563C5.53852 18.0633 5.68265 18.1239 5.83332 18.125H6.86248C7.01388 18.125 7.15907 18.0649 7.26612 17.9578C7.37318 17.8507 7.43332 17.7056 7.43332 17.5542V17.1167M12.5625 17.1167V17.5542C12.5625 17.7056 12.6226 17.8507 12.7297 17.9578C12.8367 18.0649 12.9819 18.125 13.1333 18.125H14.1667C14.318 18.125 14.4632 18.0649 14.5703 17.9578C14.6773 17.8507 14.7375 17.7056 14.7375 17.5542V17.1167"  stroke-width="1.3" stroke-linecap="round" stroke-linejoin="round" />
   </symbol>
    <symbol id="gas" viewBox="0 0 20 20" >
  <path d="M15.6699 8.74467C15.44 8.46132 15.16 8.21576 14.9001 7.9702C14.2302 7.40352 13.4703 6.99739 12.8305 6.40238C11.3407 5.02345 11.0108 2.74727 11.9606 1C11.0108 1.21723 10.1809 1.70835 9.47107 2.2467C6.88155 4.2112 5.86173 7.67741 7.08151 10.6525C7.1215 10.7469 7.16149 10.8414 7.16149 10.9642C7.16149 11.172 7.01152 11.3609 6.81156 11.4364C6.5816 11.5309 6.34165 11.4742 6.15168 11.3231C6.09459 11.2785 6.04708 11.224 6.01171 11.1625C4.88191 9.81192 4.70194 7.87575 5.46181 6.32682C3.79211 7.6113 2.88228 9.78358 3.01225 11.8331C3.07224 12.3053 3.13223 12.7776 3.3022 13.2498C3.44218 13.8165 3.71213 14.3832 4.01207 14.8837C5.09187 16.5177 6.96153 17.6888 8.97116 17.9249C11.1108 18.1799 13.4004 17.8116 15.0401 16.4138C16.8697 14.846 17.5096 12.3337 16.5698 10.1803L16.4398 9.9347C16.2298 9.50024 15.6699 8.74467 15.6699 8.74467ZM12.5105 14.6948C12.2306 14.9215 11.7707 15.1671 11.4107 15.2615C10.2909 15.6393 9.17113 15.1104 8.51125 14.4871C9.70103 14.2226 10.4109 13.3915 10.6209 12.5509C10.7908 11.7953 10.4709 11.172 10.3409 10.4447C10.2209 9.7458 10.2409 9.15079 10.5109 8.4991C10.7008 8.858 10.9008 9.2169 11.1408 9.50024C11.9106 10.4447 13.1204 10.8603 13.3804 12.1448C13.4203 12.277 13.4403 12.4092 13.4403 12.5509C13.4703 13.3254 13.1104 14.1754 12.5105 14.6948Z"  />
 </symbol>
    <symbol id="water" viewBox="0 0 20 20" fill="none">
 <path d="M15.625 12.5C15.625 15.952 13.452 18.125 10 18.125C6.54805 18.125 4.375 15.952 4.375 12.5C4.375 8.79571 8.40742 3.79492 9.64414 2.34844C9.68815 2.29705 9.74276 2.25579 9.80422 2.2275C9.86568 2.19922 9.93254 2.18457 10.0002 2.18457C10.0679 2.18457 10.1347 2.19922 10.1962 2.2275C10.2576 2.25579 10.3122 2.29705 10.3562 2.34844C11.5926 3.79492 15.625 8.79571 15.625 12.5Z"  stroke-width="1.5" stroke-miterlimit="10" />
  <path d="M13.4375 12.8125C13.4375 13.5584 13.1412 14.2738 12.6137 14.8012C12.0863 15.3287 11.3709 15.625 10.625 15.625"  stroke-width="1.5" stroke-linecap="round" stroke-linejoin="round" />
   </symbol>
    <symbol id="microwave" viewBox="0 0 20 20" fill="none">
 <path d="M18.5714 3.57141H1.42852C1.23908 3.57141 1.0574 3.64667 0.923443 3.78062C0.789488 3.91458 0.714233 4.09626 0.714233 4.2857V15.7143C0.714233 15.9037 0.789488 16.0854 0.923443 16.2193C1.0574 16.3533 1.23908 16.4286 1.42852 16.4286H18.5714C18.7608 16.4286 18.9425 16.3533 19.0765 16.2193C19.2104 16.0854 19.2857 15.9037 19.2857 15.7143V4.2857C19.2857 4.09626 19.2104 3.91458 19.0765 3.78062C18.9425 3.64667 18.7608 3.57141 18.5714 3.57141Z"  stroke-width="1.4" stroke-linecap="round" stroke-linejoin="round" />
  <path d="M15.7143 7.14281H16.4286M15.7143 9.99996H16.4286M12.1428 6.42853H4.2857C4.09626 6.42853 3.91458 6.50378 3.78062 6.63774C3.64667 6.77169 3.57141 6.95337 3.57141 7.14281V12.8571C3.57141 13.0465 3.64667 13.2282 3.78062 13.3622C3.91458 13.4961 4.09626 13.5714 4.2857 13.5714H12.1428C12.3323 13.5714 12.514 13.4961 12.6479 13.3622C12.7819 13.2282 12.8571 13.0465 12.8571 12.8571V7.14281C12.8571 6.95337 12.7819 6.77169 12.6479 6.63774C12.514 6.50378 12.3323 6.42853 12.1428 6.42853Z"  stroke-width="1.4" stroke-linecap="round" stroke-linejoin="round" />
 </symbol>
    <symbol id="calendar" viewBox="0 0 20 20" fill="none">
 <path d="M15.8333 3.33331H4.16667C3.24619 3.33331 2.5 4.07951 2.5 4.99998V16.6666C2.5 17.5871 3.24619 18.3333 4.16667 18.3333H15.8333C16.7538 18.3333 17.5 17.5871 17.5 16.6666V4.99998C17.5 4.07951 16.7538 3.33331 15.8333 3.33331Z"  stroke-width="1.5" stroke-linecap="round" stroke-linejoin="round" />
  <path d="M13.3335 1.66669V5.00002"  stroke-width="1.5" stroke-linecap="round" stroke-linejoin="round" />
  <path d="M6.6665 1.66669V5.00002"  stroke-width="1.5" stroke-linecap="round" stroke-linejoin="round" />
  <path d="M2.5 8.33331H17.5"  stroke-width="1.5" stroke-linecap="round" stroke-linejoin="round" />
   </symbol>
    <symbol id="close-btn" viewBox="0 0 32 32" fill="none">
    <path d="M24 8L8 24"  stroke-width="3" stroke-linecap="round" stroke-linejoin="round" />
  <path d="M8 8L24 24"  stroke-width="3" stroke-linecap="round" stroke-linejoin="round" />
    </symbol>
  </defs>
</svg>



